<svg width="50" height="50" viewBox="0 0 50 50" fill="none" xmlns="http://www.w3.org/2000/svg">
<mask id="path-1-inside-1_26_233" fill="white">
<path d="M25 0C31.3044 -7.51795e-08 37.3761 2.3819 41.9988 6.66862C46.6216 10.9553 49.4541 16.8303 49.929 23.1168C50.4039 29.4033 48.4861 35.6372 44.5598 40.5697C40.6335 45.5022 34.9885 48.7692 28.7556 49.7163L28.3801 47.2447C33.9897 46.3923 39.0701 43.452 42.6038 39.0127C46.1375 34.5735 47.8635 28.963 47.4361 23.3051C47.0087 17.6473 44.4594 12.3598 40.299 8.50175C36.1385 4.64371 30.674 2.5 25 2.5V0Z"/>
</mask>
<path d="M25 0C31.3044 -7.51795e-08 37.3761 2.3819 41.9988 6.66862C46.6216 10.9553 49.4541 16.8303 49.929 23.1168C50.4039 29.4033 48.4861 35.6372 44.5598 40.5697C40.6335 45.5022 34.9885 48.7692 28.7556 49.7163L28.3801 47.2447C33.9897 46.3923 39.0701 43.452 42.6038 39.0127C46.1375 34.5735 47.8635 28.963 47.4361 23.3051C47.0087 17.6473 44.4594 12.3598 40.299 8.50175C36.1385 4.64371 30.674 2.5 25 2.5V0Z" stroke="#C89104" stroke-width="3" mask="url(#path-1-inside-1_26_233)"/>
<circle cx="25" cy="25" r="23" fill="#F4E9CD"/>
<path d="M34.3166 31.7714H12V34.4H38.2857V31.7714H34.3166ZM36.9714 30.4571C36.6166 25.108 32.7 20.7314 27.5611 19.6669C27.6926 19.3514 27.7714 18.9966 27.7714 18.6286C27.7714 17.1829 26.5886 16 25.1429 16C23.6971 16 22.5143 17.1829 22.5143 18.6286C22.5143 18.9966 22.5931 19.3514 22.7246 19.6669C17.5857 20.7314 13.6691 25.108 13.3143 30.4571H36.9714ZM25.1429 22.0194C29.02 22.0194 32.332 24.4246 33.6857 27.8154H16.6C17.9537 24.4246 21.2657 22.0194 25.1429 22.0194Z" fill="#C89104"/>
</svg>
